<svg width="225" height="188" viewBox="0 0 225 188" fill="none" xmlns="http://www.w3.org/2000/svg">
<rect width="225" height="188" rx="35" fill="#D3D6DB"/>
<path d="M153.486 41.712C130.707 31.0101 116.77 40.5976 133.63 44.1941C176.364 53.3504 182.717 103.152 142.072 131.392C93.8317 164.816 32.3902 120.715 62.8687 74.5839C75.8046 55.0337 90.5406 44.4162 105.379 43.8549C118.418 43.3952 114.217 37.2116 100.904 37.3329C68.0714 37.6321 33.1221 77.5823 39.988 107.009C45.54 131.079 66.5684 146.569 98.5399 150.028C173.02 158.128 216.941 71.4756 153.486 41.712Z" fill="#BE3144"/>
<path d="M99.1056 108.346C95.0871 102.417 94.725 102.164 90.7696 102.456C80.4328 103.317 87.4112 117.231 100.501 121.714C111.334 125.451 128.045 123.253 133.654 117.492C142.112 108.807 139.905 95.1899 130.966 100.896C130.43 101.242 129.192 103.299 128.223 105.353C121.708 119.39 107.419 120.799 99.1056 108.346Z" fill="#BE3144"/>
<path d="M137.959 80.7185C134.647 73.4189 129.591 71.6751 126.043 76.6508C121.787 82.7409 124.273 88.3433 131.199 88.2802C138.126 88.2171 140.261 85.8965 137.959 80.7185Z" fill="#BE3144"/>
<path d="M100.64 82.2517C100.58 76.2861 96.5043 73.5958 90.9496 75.8624C85.9322 77.8684 83.6849 86.9233 87.315 90.0437C93.0314 94.8497 100.721 90.2625 100.64 82.2517Z" fill="#BE3144"/>
</svg>
